<mxfile host="app.diagrams.net" modified="2022-02-17T07:11:35.202Z" agent="5.0 (Macintosh; Intel Mac OS X 10_15_7) AppleWebKit/537.36 (KHTML, like Gecko) Chrome/98.0.4758.102 Safari/537.36" etag="EGqkQx2mFSFhj97Az8F5" version="16.5.6" type="github">
  <diagram id="fQ9575AcgiT-R6FGXtyA" name="第 1 页">
    <mxGraphModel dx="946" dy="613" grid="0" gridSize="10" guides="1" tooltips="1" connect="1" arrows="1" fold="1" page="1" pageScale="1" pageWidth="827" pageHeight="1169" math="0" shadow="0">
      <root>
        <mxCell id="0" />
        <mxCell id="1" parent="0" />
        <mxCell id="-gSAQ-iOnrztvdVPqRcL-2" value="" style="rounded=1;whiteSpace=wrap;html=1;fillColor=#f8cecc;strokeColor=#b85450;" vertex="1" parent="1">
          <mxGeometry x="130" y="130" width="430" height="190" as="geometry" />
        </mxCell>
        <mxCell id="-gSAQ-iOnrztvdVPqRcL-14" style="edgeStyle=orthogonalEdgeStyle;rounded=0;orthogonalLoop=1;jettySize=auto;html=1;entryX=0.5;entryY=0;entryDx=0;entryDy=0;fontSize=17;dashed=1;" edge="1" parent="1" source="-gSAQ-iOnrztvdVPqRcL-1" target="-gSAQ-iOnrztvdVPqRcL-10">
          <mxGeometry relative="1" as="geometry" />
        </mxCell>
        <mxCell id="-gSAQ-iOnrztvdVPqRcL-1" value="&lt;b&gt;&lt;font style=&quot;font-size: 17px&quot;&gt;kubectl&lt;/font&gt;&lt;/b&gt;" style="rounded=1;whiteSpace=wrap;html=1;fillColor=#dae8fc;strokeColor=#6c8ebf;" vertex="1" parent="1">
          <mxGeometry x="305" y="40" width="80" height="30" as="geometry" />
        </mxCell>
        <mxCell id="-gSAQ-iOnrztvdVPqRcL-4" value="" style="rounded=1;whiteSpace=wrap;html=1;fontSize=17;fillColor=#e1d5e7;strokeColor=#9673a6;" vertex="1" parent="1">
          <mxGeometry x="110" y="360" width="300" height="220" as="geometry" />
        </mxCell>
        <mxCell id="-gSAQ-iOnrztvdVPqRcL-19" style="edgeStyle=orthogonalEdgeStyle;rounded=0;orthogonalLoop=1;jettySize=auto;html=1;entryX=0.5;entryY=0;entryDx=0;entryDy=0;entryPerimeter=0;dashed=1;fontSize=17;" edge="1" parent="1" source="-gSAQ-iOnrztvdVPqRcL-10" target="-gSAQ-iOnrztvdVPqRcL-13">
          <mxGeometry relative="1" as="geometry" />
        </mxCell>
        <mxCell id="-gSAQ-iOnrztvdVPqRcL-10" value="&lt;b&gt;apiserver&lt;/b&gt;" style="rounded=1;whiteSpace=wrap;html=1;fontSize=17;fillColor=#fff2cc;strokeColor=#d6b656;" vertex="1" parent="1">
          <mxGeometry x="285" y="150" width="120" height="40" as="geometry" />
        </mxCell>
        <mxCell id="-gSAQ-iOnrztvdVPqRcL-11" value="&lt;b&gt;controller-manager&lt;/b&gt;" style="rounded=1;whiteSpace=wrap;html=1;fontSize=17;fillColor=#fff2cc;strokeColor=#d6b656;" vertex="1" parent="1">
          <mxGeometry x="390" y="205" width="160" height="40" as="geometry" />
        </mxCell>
        <mxCell id="-gSAQ-iOnrztvdVPqRcL-12" value="&lt;b&gt;scheduler&lt;/b&gt;" style="rounded=1;whiteSpace=wrap;html=1;fontSize=17;fillColor=#fff2cc;strokeColor=#d6b656;" vertex="1" parent="1">
          <mxGeometry x="140" y="210" width="160" height="40" as="geometry" />
        </mxCell>
        <mxCell id="-gSAQ-iOnrztvdVPqRcL-16" value="" style="curved=1;endArrow=classic;html=1;rounded=0;dashed=1;fontSize=17;entryX=0;entryY=0.5;entryDx=0;entryDy=0;exitX=0.5;exitY=0;exitDx=0;exitDy=0;" edge="1" parent="1" source="-gSAQ-iOnrztvdVPqRcL-12" target="-gSAQ-iOnrztvdVPqRcL-10">
          <mxGeometry width="50" height="50" relative="1" as="geometry">
            <mxPoint x="210" y="210" as="sourcePoint" />
            <mxPoint x="260" y="160" as="targetPoint" />
            <Array as="points">
              <mxPoint x="240" y="180" />
            </Array>
          </mxGeometry>
        </mxCell>
        <mxCell id="-gSAQ-iOnrztvdVPqRcL-18" value="" style="curved=1;endArrow=classic;html=1;rounded=0;dashed=1;fontSize=17;entryX=1;entryY=0.5;entryDx=0;entryDy=0;exitX=0.5;exitY=0;exitDx=0;exitDy=0;" edge="1" parent="1" source="-gSAQ-iOnrztvdVPqRcL-11" target="-gSAQ-iOnrztvdVPqRcL-10">
          <mxGeometry width="50" height="50" relative="1" as="geometry">
            <mxPoint x="470" y="200" as="sourcePoint" />
            <mxPoint x="490" y="170" as="targetPoint" />
            <Array as="points">
              <mxPoint x="440" y="170" />
            </Array>
          </mxGeometry>
        </mxCell>
        <mxCell id="-gSAQ-iOnrztvdVPqRcL-20" value="&lt;b&gt;&lt;font style=&quot;font-size: 18px&quot;&gt;Master&lt;/font&gt;&lt;/b&gt;" style="text;html=1;strokeColor=none;fillColor=none;align=center;verticalAlign=middle;whiteSpace=wrap;rounded=0;fontSize=17;" vertex="1" parent="1">
          <mxGeometry x="140" y="140" width="60" height="30" as="geometry" />
        </mxCell>
        <mxCell id="-gSAQ-iOnrztvdVPqRcL-21" value="" style="sketch=0;html=1;dashed=0;whitespace=wrap;fillColor=#2875E2;strokeColor=#ffffff;points=[[0.005,0.63,0],[0.1,0.2,0],[0.9,0.2,0],[0.5,0,0],[0.995,0.63,0],[0.72,0.99,0],[0.5,1,0],[0.28,0.99,0]];shape=mxgraph.kubernetes.icon;prIcon=etcd;fontSize=17;" vertex="1" parent="1">
          <mxGeometry x="355" y="270" width="50" height="48" as="geometry" />
        </mxCell>
        <mxCell id="-gSAQ-iOnrztvdVPqRcL-22" value="" style="sketch=0;html=1;dashed=0;whitespace=wrap;fillColor=#2875E2;strokeColor=#ffffff;points=[[0.005,0.63,0],[0.1,0.2,0],[0.9,0.2,0],[0.5,0,0],[0.995,0.63,0],[0.72,0.99,0],[0.5,1,0],[0.28,0.99,0]];shape=mxgraph.kubernetes.icon;prIcon=etcd;fontSize=17;" vertex="1" parent="1">
          <mxGeometry x="285" y="272" width="50" height="48" as="geometry" />
        </mxCell>
        <mxCell id="-gSAQ-iOnrztvdVPqRcL-13" value="" style="sketch=0;html=1;dashed=0;whitespace=wrap;fillColor=#2875E2;strokeColor=#ffffff;points=[[0.005,0.63,0],[0.1,0.2,0],[0.9,0.2,0],[0.5,0,0],[0.995,0.63,0],[0.72,0.99,0],[0.5,1,0],[0.28,0.99,0]];shape=mxgraph.kubernetes.icon;prIcon=etcd;fontSize=17;" vertex="1" parent="1">
          <mxGeometry x="320" y="270" width="50" height="48" as="geometry" />
        </mxCell>
        <mxCell id="-gSAQ-iOnrztvdVPqRcL-56" style="edgeStyle=orthogonalEdgeStyle;rounded=0;orthogonalLoop=1;jettySize=auto;html=1;entryX=0.8;entryY=0.396;entryDx=0;entryDy=0;entryPerimeter=0;dashed=1;fontSize=18;" edge="1" parent="1" source="-gSAQ-iOnrztvdVPqRcL-23" target="-gSAQ-iOnrztvdVPqRcL-31">
          <mxGeometry relative="1" as="geometry" />
        </mxCell>
        <mxCell id="-gSAQ-iOnrztvdVPqRcL-57" style="edgeStyle=orthogonalEdgeStyle;rounded=0;orthogonalLoop=1;jettySize=auto;html=1;entryX=0.68;entryY=0.021;entryDx=0;entryDy=0;entryPerimeter=0;dashed=1;fontSize=18;" edge="1" parent="1" source="-gSAQ-iOnrztvdVPqRcL-23" target="-gSAQ-iOnrztvdVPqRcL-45">
          <mxGeometry relative="1" as="geometry">
            <Array as="points">
              <mxPoint x="200" y="470" />
              <mxPoint x="323" y="470" />
            </Array>
          </mxGeometry>
        </mxCell>
        <mxCell id="-gSAQ-iOnrztvdVPqRcL-23" value="&lt;b&gt;kubelet&lt;/b&gt;" style="rounded=1;whiteSpace=wrap;html=1;fontSize=17;fillColor=#fff2cc;strokeColor=#d6b656;" vertex="1" parent="1">
          <mxGeometry x="150" y="390" width="100" height="40" as="geometry" />
        </mxCell>
        <mxCell id="-gSAQ-iOnrztvdVPqRcL-54" style="edgeStyle=orthogonalEdgeStyle;rounded=0;orthogonalLoop=1;jettySize=auto;html=1;entryX=0.86;entryY=0.354;entryDx=0;entryDy=0;entryPerimeter=0;dashed=1;fontSize=18;" edge="1" parent="1" source="-gSAQ-iOnrztvdVPqRcL-24" target="-gSAQ-iOnrztvdVPqRcL-45">
          <mxGeometry relative="1" as="geometry" />
        </mxCell>
        <mxCell id="-gSAQ-iOnrztvdVPqRcL-55" style="edgeStyle=orthogonalEdgeStyle;rounded=0;orthogonalLoop=1;jettySize=auto;html=1;entryX=0.9;entryY=0.2;entryDx=0;entryDy=0;entryPerimeter=0;dashed=1;fontSize=18;" edge="1" parent="1" source="-gSAQ-iOnrztvdVPqRcL-24" target="-gSAQ-iOnrztvdVPqRcL-32">
          <mxGeometry relative="1" as="geometry">
            <Array as="points">
              <mxPoint x="333" y="480" />
              <mxPoint x="215" y="480" />
            </Array>
          </mxGeometry>
        </mxCell>
        <mxCell id="-gSAQ-iOnrztvdVPqRcL-24" value="&lt;b&gt;kube-proxy&lt;/b&gt;" style="rounded=1;whiteSpace=wrap;html=1;fontSize=17;fillColor=#fff2cc;strokeColor=#d6b656;" vertex="1" parent="1">
          <mxGeometry x="285" y="390" width="95" height="40" as="geometry" />
        </mxCell>
        <mxCell id="-gSAQ-iOnrztvdVPqRcL-25" value="&lt;span style=&quot;font-size: 18px&quot;&gt;&lt;b&gt;Node&lt;/b&gt;&lt;/span&gt;" style="text;html=1;strokeColor=none;fillColor=none;align=center;verticalAlign=middle;whiteSpace=wrap;rounded=0;fontSize=17;" vertex="1" parent="1">
          <mxGeometry x="120" y="360" width="60" height="30" as="geometry" />
        </mxCell>
        <mxCell id="-gSAQ-iOnrztvdVPqRcL-29" value="" style="sketch=0;html=1;dashed=0;whitespace=wrap;fillColor=#2875E2;strokeColor=#ffffff;points=[[0.005,0.63,0],[0.1,0.2,0],[0.9,0.2,0],[0.5,0,0],[0.995,0.63,0],[0.72,0.99,0],[0.5,1,0],[0.28,0.99,0]];shape=mxgraph.kubernetes.icon;prIcon=pod;fontSize=18;" vertex="1" parent="1">
          <mxGeometry x="140" y="490" width="50" height="48" as="geometry" />
        </mxCell>
        <mxCell id="-gSAQ-iOnrztvdVPqRcL-30" value="" style="sketch=0;html=1;dashed=0;whitespace=wrap;fillColor=#2875E2;strokeColor=#ffffff;points=[[0.005,0.63,0],[0.1,0.2,0],[0.9,0.2,0],[0.5,0,0],[0.995,0.63,0],[0.72,0.99,0],[0.5,1,0],[0.28,0.99,0]];shape=mxgraph.kubernetes.icon;prIcon=pod;fontSize=18;" vertex="1" parent="1">
          <mxGeometry x="150" y="500" width="50" height="48" as="geometry" />
        </mxCell>
        <mxCell id="-gSAQ-iOnrztvdVPqRcL-31" value="" style="sketch=0;html=1;dashed=0;whitespace=wrap;fillColor=#2875E2;strokeColor=#ffffff;points=[[0.005,0.63,0],[0.1,0.2,0],[0.9,0.2,0],[0.5,0,0],[0.995,0.63,0],[0.72,0.99,0],[0.5,1,0],[0.28,0.99,0]];shape=mxgraph.kubernetes.icon;prIcon=pod;fontSize=18;" vertex="1" parent="1">
          <mxGeometry x="160" y="510" width="50" height="48" as="geometry" />
        </mxCell>
        <mxCell id="-gSAQ-iOnrztvdVPqRcL-32" value="" style="sketch=0;html=1;dashed=0;whitespace=wrap;fillColor=#2875E2;strokeColor=#ffffff;points=[[0.005,0.63,0],[0.1,0.2,0],[0.9,0.2,0],[0.5,0,0],[0.995,0.63,0],[0.72,0.99,0],[0.5,1,0],[0.28,0.99,0]];shape=mxgraph.kubernetes.icon;prIcon=pod;fontSize=18;" vertex="1" parent="1">
          <mxGeometry x="170" y="520" width="50" height="48" as="geometry" />
        </mxCell>
        <mxCell id="-gSAQ-iOnrztvdVPqRcL-33" value="" style="aspect=fixed;perimeter=ellipsePerimeter;html=1;align=center;shadow=0;dashed=0;spacingTop=3;image;image=img/lib/active_directory/internet_cloud.svg;fontSize=18;" vertex="1" parent="1">
          <mxGeometry x="480" y="400" width="90" height="56.7" as="geometry" />
        </mxCell>
        <mxCell id="-gSAQ-iOnrztvdVPqRcL-34" value="" style="curved=1;endArrow=classic;html=1;rounded=0;dashed=1;fontSize=18;exitX=1;exitY=0.5;exitDx=0;exitDy=0;entryX=-0.022;entryY=0.617;entryDx=0;entryDy=0;entryPerimeter=0;" edge="1" parent="1" source="-gSAQ-iOnrztvdVPqRcL-24" target="-gSAQ-iOnrztvdVPqRcL-33">
          <mxGeometry width="50" height="50" relative="1" as="geometry">
            <mxPoint x="480" y="520" as="sourcePoint" />
            <mxPoint x="530" y="470" as="targetPoint" />
            <Array as="points">
              <mxPoint x="440" y="390" />
            </Array>
          </mxGeometry>
        </mxCell>
        <mxCell id="-gSAQ-iOnrztvdVPqRcL-43" value="" style="sketch=0;html=1;dashed=0;whitespace=wrap;fillColor=#2875E2;strokeColor=#ffffff;points=[[0.005,0.63,0],[0.1,0.2,0],[0.9,0.2,0],[0.5,0,0],[0.995,0.63,0],[0.72,0.99,0],[0.5,1,0],[0.28,0.99,0]];shape=mxgraph.kubernetes.icon;prIcon=pod;fontSize=18;" vertex="1" parent="1">
          <mxGeometry x="270" y="485" width="50" height="48" as="geometry" />
        </mxCell>
        <mxCell id="-gSAQ-iOnrztvdVPqRcL-44" value="" style="sketch=0;html=1;dashed=0;whitespace=wrap;fillColor=#2875E2;strokeColor=#ffffff;points=[[0.005,0.63,0],[0.1,0.2,0],[0.9,0.2,0],[0.5,0,0],[0.995,0.63,0],[0.72,0.99,0],[0.5,1,0],[0.28,0.99,0]];shape=mxgraph.kubernetes.icon;prIcon=pod;fontSize=18;" vertex="1" parent="1">
          <mxGeometry x="280" y="495" width="50" height="48" as="geometry" />
        </mxCell>
        <mxCell id="-gSAQ-iOnrztvdVPqRcL-45" value="" style="sketch=0;html=1;dashed=0;whitespace=wrap;fillColor=#2875E2;strokeColor=#ffffff;points=[[0.005,0.63,0],[0.1,0.2,0],[0.9,0.2,0],[0.5,0,0],[0.995,0.63,0],[0.72,0.99,0],[0.5,1,0],[0.28,0.99,0]];shape=mxgraph.kubernetes.icon;prIcon=pod;fontSize=18;" vertex="1" parent="1">
          <mxGeometry x="290" y="505" width="50" height="48" as="geometry" />
        </mxCell>
        <mxCell id="-gSAQ-iOnrztvdVPqRcL-46" value="" style="sketch=0;html=1;dashed=0;whitespace=wrap;fillColor=#2875E2;strokeColor=#ffffff;points=[[0.005,0.63,0],[0.1,0.2,0],[0.9,0.2,0],[0.5,0,0],[0.995,0.63,0],[0.72,0.99,0],[0.5,1,0],[0.28,0.99,0]];shape=mxgraph.kubernetes.icon;prIcon=pod;fontSize=18;" vertex="1" parent="1">
          <mxGeometry x="300" y="515" width="50" height="48" as="geometry" />
        </mxCell>
        <mxCell id="-gSAQ-iOnrztvdVPqRcL-58" value="" style="curved=1;endArrow=classic;html=1;rounded=0;dashed=1;fontSize=18;" edge="1" parent="1">
          <mxGeometry width="50" height="50" relative="1" as="geometry">
            <mxPoint x="200" y="400" as="sourcePoint" />
            <mxPoint x="340" y="190" as="targetPoint" />
            <Array as="points">
              <mxPoint x="210" y="350" />
            </Array>
          </mxGeometry>
        </mxCell>
        <mxCell id="-gSAQ-iOnrztvdVPqRcL-59" value="" style="curved=1;endArrow=classic;html=1;rounded=0;dashed=1;fontSize=18;entryX=0.5;entryY=1;entryDx=0;entryDy=0;exitX=0.5;exitY=0;exitDx=0;exitDy=0;" edge="1" parent="1" source="-gSAQ-iOnrztvdVPqRcL-24" target="-gSAQ-iOnrztvdVPqRcL-10">
          <mxGeometry width="50" height="50" relative="1" as="geometry">
            <mxPoint x="360" y="380" as="sourcePoint" />
            <mxPoint x="410" y="330" as="targetPoint" />
            <Array as="points">
              <mxPoint x="380" y="380" />
              <mxPoint x="430" y="280" />
            </Array>
          </mxGeometry>
        </mxCell>
      </root>
    </mxGraphModel>
  </diagram>
</mxfile>
